<svg width="951" height="951" viewBox="0 0 951 951" fill="none" xmlns="http://www.w3.org/2000/svg">
<path d="M475.5 398.093L829.835 713.25H121.165L475.5 398.093Z" fill="#A80000"/>
<path d="M308.157 34.7115C28.9623 110.108 -78.3596 368.791 172.22 455.765H170.186C171.365 455.925 172.552 456.11 173.726 456.285C190.415 462 208.701 466.933 228.579 471.033C322.002 507.726 389.575 596.641 395.055 683.531C332.805 726.43 284.594 800.259 284.594 800.259L333.407 872.115L256.844 915.709H409.097C334.01 840.604 387.253 756.145 476.196 756.145C566.355 756.145 613.543 845.509 543.353 915.709H694.038L619.045 872.115L667.863 800.259C667.863 800.259 618.872 725.219 555.894 682.487C561.845 595.928 629.262 507.579 722.31 471.031C742.195 466.932 760.473 462.004 777.16 456.287C778.335 456.11 779.524 455.925 780.704 455.767H778.614C1029.23 368.802 921.938 110.112 642.731 34.7078C567.093 107.834 654.878 223.576 723.762 140.352C792.301 268.663 739.742 377.335 589.508 295.272C567.442 340.764 525.96 372.121 476.785 372.121C427.186 372.121 385.459 340.235 363.538 294.11C211.649 378.399 158.27 269.272 227.134 140.352C296.026 223.574 383.808 107.833 308.166 34.7096L308.157 34.7115ZM476.792 101.43C425.921 101.43 381.451 152.613 381.451 219.581C381.451 286.552 425.921 336.589 476.792 336.589C527.661 336.589 572.128 286.55 572.128 219.583C572.128 152.608 527.661 101.432 476.79 101.432L476.792 101.43Z" fill="white"/>
</svg>
