<svg height="512pt" viewBox="-17 0 512 512.00016" width="512pt" xmlns="http://www.w3.org/2000/svg"><path d="m420.84375 275.390625 7.101562-10.925781c5.214844 4.527344 12.015626 7.269531 19.445313 7.269531 16.378906 0 29.703125-13.324219 29.703125-29.703125 0-25.226562-20.523438-45.75-45.75-45.75-19.566406 0-38.191406 9.390625-49.824219 25.121094l-15.226562 20.585937c-11.933594 16.132813-30.265625 26.464844-50.054688 28.503907l27.148438-44.523438c31.257812-47.296875 39.914062-94.164062 25.035156-135.539062-1.871094-5.195313-7.597656-7.894532-12.796875-6.027344-5.195312 1.871094-7.894531 7.597656-6.027344 12.796875 12.675782 35.246093 4.726563 76.007812-22.992187 117.886719-.066407.101562-.136719.207031-.199219.3125l-36.746094 60.257812c-1.882812 3.085938-1.949218 6.949219-.179687 10.101562 1.769531 3.152344 5.105469 5.105469 8.71875 5.105469h10.832031c28.796875 0 56.21875-13.824219 73.34375-36.980469l15.226562-20.585937c7.878907-10.652344 20.492188-17.011719 33.742188-17.011719 14.199219 0 25.746094 11.550782 25.746094 25.746094 0 5.347656-4.351563 9.699219-9.699219 9.699219-4.554687 0-8.386719-3.15625-9.421875-7.410157l-.328125-3.296874c-.523437-5.308594-5.121094-9.261719-10.441406-8.996094-5.328125.265625-9.511719 4.671875-9.511719 10.003906 0 .492188.011719.980469.035156 1.464844l-13.648437 20.992187c-23.390625 35.96875-62.96875 57.445313-105.875 57.445313-.003907 0-.003907.003906-.003907.007812-1.839843 0-3.703124.496094-5.371093 1.558594-4.65625 2.96875-6.027344 9.148438-3.058594 13.808594l11.996094 18.824218c10.097656 15.839844 27.339843 25.296876 46.121093 25.296876 17.945313 0 34.753907-8.804688 44.96875-23.558594l11.988282-17.316406c4.304687-6.214844 11.382812-9.921876 18.9375-9.921876 12.703125 0 23.035156 10.332032 23.035156 23.03125v.332032c0 4.085937-3.324219 7.410156-7.410156 7.410156-2.84375 0-5.390625-1.582031-6.652344-4.132812-2.449219-4.953126-8.449219-6.980469-13.402344-4.527344-4.949218 2.449218-6.976562 8.449218-4.527344 13.398437.269532.542969.558594 1.070313.859376 1.589844l-6.824219 10.710937c-12.234375 19.210938-33.140625 30.679688-55.917969 30.679688-20.039062 0-38.785156-8.914062-51.429688-24.464844l-15.894531-19.539062c-3.484375-4.289063-9.785156-4.9375-14.070312-1.449219-2.425781 1.976563-3.683594 4.851563-3.6875 7.757813 0 0 0 0-.003907 0v9.441406c0 23.960937 13.191407 45.746094 34.421876 56.855468 14.609374 7.644532 23.6875 22.640626 23.6875 39.132813v2.492187c0 6.972657-5.671876 12.644532-12.644532 12.644532-4.957031 0-9.246094-2.871094-11.316406-7.035156 2.089844-.847657 3.910156-2.402344 5.054688-4.550782 2.597656-4.875.75-10.933594-4.121094-13.53125l-7.230469-3.851562c-22.445313-11.960938-38.554687-33.042969-44.199219-57.839844l-1.820312-7.988281c-.753906-3.3125-1.132813-6.714844-1.132813-10.113281v-19.984376c0-5.519531-4.480469-10-10.003906-10s-10 4.480469-10 10v19.984376c0 3.398437-.382813 6.800781-1.136719 10.113281l-1.816406 7.988281c-5.644531 24.796875-21.753906 45.878906-44.199219 57.839844l-7.230469 3.851562c-4.875 2.601563-6.71875 8.65625-4.121093 13.53125 1.144531 2.148438 2.964843 3.703125 5.054687 4.550782-2.074218 4.164062-6.359375 7.035156-11.316406 7.035156-6.972656 0-12.648438-5.671875-12.648438-12.644532v-2.492187c0-16.492187 9.078126-31.488281 23.691407-39.132813 21.230469-11.109374 34.417969-32.894531 34.417969-56.855468v-9.441406s0 0-.003907 0c0-2.90625-1.257812-5.78125-3.6875-7.757813-4.285156-3.488281-10.582031-2.835937-14.070312 1.449219l-15.890625 19.539062c-12.644532 15.550782-31.390625 24.464844-51.433594 24.464844-22.777344 0-43.679688-11.46875-55.914062-30.679688l-6.828126-10.707031c.300782-.519531.589844-1.046875.855469-1.589843 2.453125-4.953126.425781-10.949219-4.527343-13.402344-4.949219-2.445313-10.949219-.421875-13.398438 4.527344-1.261719 2.550781-3.8125 4.136718-6.652344 4.136718-4.085937 0-7.410156-3.324218-7.410156-7.414062v-.328125c0-12.703125 10.332031-23.035157 23.03125-23.035157 7.558594 0 14.636719 3.710938 18.9375 9.921876l11.992188 17.316406c10.210937 14.753906 27.023437 23.5625 44.964843 23.5625 18.785157 0 36.027344-9.457032 46.121094-25.300782l12-18.820312c2.96875-4.660156 1.597656-10.84375-3.0625-13.808594-1.664063-1.066406-3.527344-1.5625-5.367187-1.5625 0 0-.007813-.007812-.007813-.007812-42.90625 0-82.484375-21.472656-105.875-57.445313l-13.648437-20.992187c.023437-.496094.039062-.992188.039062-1.492188 0-5.332031-4.183594-9.726562-9.511719-9.988281-5.324219-.269531-9.917969 3.699219-10.445312 9.007813l-.328125 3.324218c-1.039063 4.234375-4.867188 7.382813-9.417969 7.382813-5.351563 0-9.699219-4.351563-9.699219-9.699219 0-14.199219 11.546875-25.746094 25.746094-25.746094 13.25 0 25.863281 6.359375 33.742188 17.011719l15.226562 20.585937c17.125 23.15625 44.546875 36.980469 73.34375 36.980469h10.832031c3.613281 0 6.949219-1.953125 8.71875-5.105469 1.769531-3.152343 1.699219-7.015624-.179687-10.101562l-36.746094-60.257812c-.054688-.089844-.109375-.175782-.167969-.265626-28.082031-42.980468-50.007812-105.769531 5.023438-160.800781 37.207031-37.207031 95.117187-45.09375 140.835937-19.183593 4.804688 2.722656 10.90625 1.039062 13.628906-3.769532 2.722657-4.804687 1.039063-10.90625-3.769531-13.632812-53.511719-30.328125-121.296875-21.101563-164.839843 22.441406-50.3125 50.316406-53.050782 116.277344-7.707032 185.757812l27.164063 44.542969c-19.789063-2.035156-38.121094-12.367187-50.054688-28.5l-15.226562-20.585937c-11.632813-15.730469-30.261719-25.121094-49.824219-25.121094-25.226562 0-45.75 20.523438-45.75 45.75 0 16.375 13.324219 29.703125 29.703125 29.703125 7.425781 0 14.226563-2.742187 19.441406-7.269531l7.101563 10.925781c23.867187 36.707031 62.292968 60.371094 105.085937 65.488281l-2.871093 4.503906c-6.402344 10.046876-17.339844 16.046876-29.253907 16.046876-11.378906 0-22.042969-5.585938-28.519531-14.945313l-11.992188-17.316406c-8.035156-11.605469-21.261718-18.539063-35.382812-18.539063-23.730469 0-43.035156 19.308594-43.035156 43.035156v.332032c0 15.117187 12.296875 27.414062 27.414062 27.414062 2.753906 0 5.429688-.410156 7.96875-1.175781l5.707032 8.957031c15.925781 25.007813 43.136718 39.9375 72.785156 39.9375 19.863281 0 38.746094-6.738281 53.894531-18.882812-3.484375 3.90625-7.683594 7.238281-12.5 9.757812-21.230469 11.109375-34.421875 32.894532-34.421875 56.855469v2.492187c0 18.003907 14.648438 32.648438 32.652344 32.648438 18 0 32.648437-14.648438 32.648437-32.648438v-1.898437c18.695313-11.457031 33.328125-28.269531 42.117188-48.109375 8.789062 19.835938 23.425781 36.652344 42.121093 48.109375v1.898437c0 18.003907 14.644532 32.648438 32.648438 32.648438s32.648438-14.648438 32.648438-32.648438v-2.492187c0-23.960937-13.1875-45.746094-34.417969-56.855469-4.816407-2.519531-9.019531-5.851562-12.503907-9.761718 15.148438 12.148437 34.03125 18.886718 53.894532 18.886718 29.652344 0 56.859375-14.929687 72.785156-39.9375l5.707031-8.957031c2.539063.761719 5.214844 1.175781 7.96875 1.175781 15.117188 0 27.414063-12.300781 27.414063-27.414062v-.332032c0-23.730468-19.304688-43.035156-43.035156-43.035156-14.117188 0-27.34375 6.929688-35.382813 18.539063l-11.988281 17.316406c-6.476563 9.355469-17.140625 14.945313-28.523438 14.945313-11.914062 0-22.847656-6-29.253906-16.046876l-2.871094-4.503906c42.796875-5.117187 81.222656-28.78125 105.089844-65.488281zm0 0"/><path d="m166.039062 190.945312c0 17 13.832032 30.835938 30.835938 30.835938s30.835938-13.835938 30.835938-30.835938c0-17.003906-13.832032-30.835937-30.835938-30.835937s-30.835938 13.832031-30.835938 30.835937zm41.671876 0c0 5.972657-4.863282 10.832032-10.835938 10.832032s-10.832031-4.859375-10.832031-10.832032c0-5.976562 4.859375-10.835937 10.832031-10.835937s10.835938 4.859375 10.835938 10.835937zm0 0"/><path d="m280.21875 160.109375c-17.003906 0-30.835938 13.832031-30.835938 30.835937 0 17 13.832032 30.835938 30.835938 30.835938 17 0 30.835938-13.835938 30.835938-30.835938 0-17.003906-13.835938-30.835937-30.835938-30.835937zm0 41.667969c-5.976562 0-10.835938-4.859375-10.835938-10.832032 0-5.976562 4.859376-10.835937 10.835938-10.835937 5.972656 0 10.832031 4.859375 10.832031 10.835937 0 5.972657-4.859375 10.832032-10.832031 10.832032zm0 0"/><path d="m335.964844 65.15625c2.632812 0 5.210937-1.070312 7.070312-2.929688 1.859375-1.863281 2.929688-4.441406 2.929688-7.070312 0-2.632812-1.070313-5.210938-2.929688-7.074219-1.859375-1.859375-4.4375-2.929687-7.070312-2.929687-2.628906 0-5.210938 1.070312-7.070313 2.929687-1.859375 1.863281-2.929687 4.441407-2.929687 7.074219 0 2.628906 1.070312 5.207031 2.929687 7.070312 1.859375 1.859376 4.441407 2.929688 7.070313 2.929688zm0 0"/></svg>